<svg width="33" height="33" viewBox="0 0 33 33" fill="none" xmlns="http://www.w3.org/2000/svg">
<g clip-path="url(#clip0_49_406)">
<path d="M16.5 33C13.2366 33 10.0465 32.0323 7.3331 30.2193C4.61969 28.4062 2.50484 25.8293 1.256 22.8143C0.00714922 19.7993 -0.319606 16.4817 0.31705 13.281C0.953706 10.0803 2.52518 7.14031 4.83275 4.83275C7.14031 2.52518 10.0803 0.953706 13.281 0.31705C16.4817 -0.319606 19.7993 0.00714922 22.8143 1.256C25.8293 2.50484 28.4062 4.61969 30.2193 7.3331C32.0323 10.0465 33 13.2366 33 16.5C32.9953 20.8746 31.2554 25.0687 28.162 28.162C25.0687 31.2554 20.8746 32.9953 16.5 33ZM16.5 2.75001C13.7805 2.75001 11.1221 3.55643 8.86092 5.0673C6.59974 6.57817 4.83737 8.72563 3.79666 11.2381C2.75596 13.7506 2.48366 16.5153 3.01421 19.1825C3.54476 21.8497 4.85432 24.2998 6.77729 26.2227C8.70026 28.1457 11.1503 29.4553 13.8175 29.9858C16.4848 30.5164 19.2494 30.2441 21.7619 29.2034C24.2744 28.1626 26.4218 26.4003 27.9327 24.1391C29.4436 21.8779 30.25 19.2195 30.25 16.5C30.246 12.8545 28.7961 9.35947 26.2183 6.78171C23.6405 4.20395 20.1455 2.75401 16.5 2.75001ZM11 19.25C10.7854 19.249 10.5736 19.2983 10.3815 19.3939C10.1893 19.4895 10.0222 19.6287 9.89355 19.8004C9.76486 19.9721 9.67815 20.1716 9.64035 20.3828C9.60255 20.594 9.61472 20.8112 9.67588 21.0169C10.1685 22.4572 11.0844 23.7153 12.3036 24.6267C13.5229 25.538 14.9888 26.0602 16.5096 26.125C18.0311 26.065 19.4986 25.5445 20.7178 24.6324C21.9371 23.7203 22.8507 22.4595 23.3379 21.0169C23.3929 20.8115 23.4006 20.5963 23.3603 20.3875C23.32 20.1787 23.2328 19.9818 23.1053 19.8116C22.9777 19.6415 22.8132 19.5025 22.6241 19.4052C22.4351 19.3079 22.2263 19.2548 22.0138 19.25H11ZM8.25001 13.75C8.25001 15.125 9.48063 15.125 11 15.125C12.5194 15.125 13.75 15.125 13.75 13.75C13.75 13.0207 13.4603 12.3212 12.9446 11.8055C12.4288 11.2897 11.7294 11 11 11C10.2707 11 9.57119 11.2897 9.05546 11.8055C8.53974 12.3212 8.25001 13.0207 8.25001 13.75ZM19.25 13.75C19.25 15.125 20.4806 15.125 22 15.125C23.5194 15.125 24.75 15.125 24.75 13.75C24.75 13.0207 24.4603 12.3212 23.9446 11.8055C23.4288 11.2897 22.7294 11 22 11C21.2707 11 20.5712 11.2897 20.0555 11.8055C19.5397 12.3212 19.25 13.0207 19.25 13.75Z" fill="white"/>
</g>
<defs>
<clipPath id="clip0_49_406">
<rect width="33" height="33" fill="white"/>
</clipPath>
</defs>
</svg>
